# xmcd CD database file
#
# Track frame offsets:
#	150
#	14701
#	28557
#	44229
#	61978
#	89610
#	101964
#	120305
#	135899
#	158554
#	175407
#	191195
#	206714
#
# Disc length: 2984 seconds
#
# Revision: 3
# Processed by: cddbd v1.5.2PL0 Copyright (c) Steve Scherf et al.
# Submitted via: CDex 1.75
#
DISCID=ba0ba60d
DTITLE=Smoke Wagon Blues Band - Cigar Store
DYEAR=2016
DGENRE=Blues
TTITLE0=Smoke Wagon Blues Band - Walking Cane
TTITLE1=Smoke Wagon Blues Band - Must've Read It Wrong 
TTITLE2=Smoke Wagon Blues Band - I Tried
TTITLE3=Smoke Wagon Blues Band - Hoodoo Woman
TTITLE4=Smoke Wagon Blues Band - Put The Quilt Out To Dry
TTITLE5=Smoke Wagon Blues Band - Directly Under Her Thumb
TTITLE6=Smoke Wagon Blues Band - Cigar Store
TTITLE7=Smoke Wagon Blues Band - White Mule
TTITLE8=Smoke Wagon Blues Band - Set Me Free
TTITLE9=Smoke Wagon Blues Band - Mean Old Lady
TTITLE10=Smoke Wagon Blues Band - I Can't Change
TTITLE11=Smoke Wagon Blues Band -  Quarter Mile
TTITLE12=Smoke Wagon Blues Band - You've Been A Good Old Wagon
EXTD=YEAR: 2016
EXTT0=
EXTT1=
EXTT2=
EXTT3=
EXTT4=
EXTT5=
EXTT6=
EXTT7=
EXTT8=
EXTT9=
EXTT10=
EXTT11=
EXTT12=
PLAYORDER=
